<svg width="164" height="163" viewBox="0 0 164 163" fill="none" xmlns="http://www.w3.org/2000/svg">
<path d="M82 0.25C37.15 0.25 0.75 36.65 0.75 81.5C0.75 126.35 37.15 162.75 82 162.75C126.85 162.75 163.25 126.35 163.25 81.5C163.25 36.65 126.85 0.25 82 0.25ZM82 24.625C95.4875 24.625 106.375 35.5125 106.375 49C106.375 62.4875 95.4875 73.375 82 73.375C68.5125 73.375 57.625 62.4875 57.625 49C57.625 35.5125 68.5125 24.625 82 24.625ZM82 140C61.6875 140 43.7312 129.6 33.25 113.837C33.4937 97.6687 65.75 88.8125 82 88.8125C98.1688 88.8125 130.506 97.6687 130.75 113.837C120.269 129.6 102.312 140 82 140Z" fill="#B4B4B4"/>
</svg>
