 <svg
                width="90"
                height="24"
                viewBox="0 0 90 24"
                fill="none"
                xmlns="http://www.w3.org/2000/svg"
              >
                <path
                  d="M5.98473 5.80153H8C10.1679 5.80153 11.2672 6.77863 11.2672 8.70229C11.2672 10.6565 10.2595 11.542 7.96947 11.542H5.98473V5.80153ZM9.74046 16.3664C14.7481 16.3664 17.5267 13.6489 17.5267 8.64122C17.5267 5.58779 16.3664 3.48091 14.2901 2.10687C13.0687 1.31298 11.4198 0.977099 9.52672 0.977099H0V24H5.98473V16.3664H9.74046Z"
                  fill="black"
                />
                <path
                  d="M37.6713 18.9313H30.1293L34.0072 15.3282C36.3888 13.1298 37.427 10.9924 37.427 8.30534C37.427 3.45038 33.6407 0 28.511 0C25.7629 0 23.4728 0.793892 21.885 2.68702C20.511 4.33588 19.5949 6.38168 19.5949 8.85496H26.1904C26.1293 8.42748 26.0988 8.12214 26.0988 7.9084C26.0988 6.25954 27.1064 5.09924 28.5415 5.09924C30.0072 5.09924 31.2285 6.41221 31.2285 8.0916C31.2285 10.3511 29.2438 13.5573 25.0606 17.8931L19.198 24H37.6713V18.9313Z"
                  fill="#FE414D"
                />
                <path
                  d="M47.4327 5.80153H49.448C51.6159 5.80153 52.7152 6.77863 52.7152 8.70229C52.7152 10.6565 51.7075 11.542 49.4175 11.542H47.4327V5.80153ZM51.1885 16.3664C56.1961 16.3664 58.9747 13.6489 58.9747 8.64122C58.9747 5.58779 57.8144 3.48091 55.7381 2.10687C54.5167 1.31298 52.8678 0.977099 50.9747 0.977099H41.448V24H47.4327V16.3664H51.1885Z"
                  fill="black"
                />
                <path
                  d="M67.0582 24L69.0429 10.7481L74.3254 24H76.7071L82.2643 10.7481L83.9742 24H89.959L86.4781 0.977099H80.5544L75.6078 13.2519L70.9361 0.977099H65.0124L61.104 24H67.0582Z"
                  fill="black"
                />
              </svg>