<svg width="72" height="24" viewBox="0 0 72 24" fill="none" xmlns="http://www.w3.org/2000/svg">
<path d="M3.23404 4.59574H4.31206C7.37589 4.59574 8.87943 5.70213 8.87943 7.9149C8.87943 10.1844 7.40426 11.3191 4.4539 11.3191H3.23404V4.59574ZM4.73759 14.3262C9.07801 14.3262 12 11.9149 12 7.94326C12 5.24823 10.383 2.7234 7.71631 1.98582C6.80851 1.7305 5.44681 1.61702 3.65957 1.61702H0V23.0071H3.23404V14.3262H4.73759Z" fill="black"/>
<path d="M13.6849 23.0071H28.0395V19.9716H20.0679L23.4154 16.0284C27.1033 11.6879 28.0111 10.156 28.0111 7.68794C28.0111 4.05674 24.9757 1.24823 21.2026 1.24823C17.231 1.24823 14.7913 3.60284 14.2806 8.02837H17.4863C17.7984 5.44681 19.0466 4.17021 21.2026 4.17021C23.2452 4.17021 24.8622 5.64539 24.8622 7.68794C24.8622 9.04965 24.1246 10.3546 21.1175 14.0142L13.6849 23.0071Z" fill="#FE414D"/>
<path d="M36.4804 4.59574H37.5584C40.6222 4.59574 42.1257 5.70213 42.1257 7.9149C42.1257 10.1844 40.6506 11.3191 37.7002 11.3191H36.4804V4.59574ZM37.9839 14.3262C42.3243 14.3262 45.2463 11.9149 45.2463 7.94326C45.2463 5.24823 43.6293 2.7234 40.9626 1.98582C40.0548 1.7305 38.6931 1.61702 36.9059 1.61702H33.2463V23.0071H36.4804V14.3262H37.9839Z" fill="black"/>
<path d="M51.3851 23.0071L53.683 10.0709L59.8106 24L66.1652 10.0993L68.2078 23.0071H71.5269L67.4986 0L59.8674 16.6241L52.5482 0L48.0376 23.0071H51.3851Z" fill="black"/>
</svg>
